<?xml version="1.0" encoding="UTF-8" standalone="no"?><!DOCTYPE svg PUBLIC "-//W3C//DTD SVG 1.1//EN" "http://www.w3.org/Graphics/SVG/1.1/DTD/svg11.dtd"><svg width="100%" height="100%" viewBox="0 0 512 142" version="1.1" xmlns="http://www.w3.org/2000/svg" xmlns:xlink="http://www.w3.org/1999/xlink" xml:space="preserve" style="fill-rule:evenodd;clip-rule:evenodd;stroke-miterlimit:10;"><path d="M320.8,121.8c-3.6,-3 -5,-10.5 -5,-18.5c0,-41.3 18.7,-100.3 39.6,-100.3c12.4,0 14.4,8.1 10.6,28.5l-2.8,15.4c-6.1,34.2 -20.7,70.4 -35,75.7l7,0.7c10.6,-11.7 20.2,-32.2 28.8,-66.1l1,0.3l-9.3,38.8c-3.3,13.7 -1.6,23.1 3.2,29.5l43.7,4.5c-5.7,-9.6 -3.6,-32.1 -0.5,-50.1l13.4,-78.1c-18.1,20.7 -38.1,-1 -63,-1c-46.1,0 -82.2,49.2 -82.2,89.2c0,9.5 1.6,19 5.2,26.9l45.3,4.6Z" style="fill:#1d1d1b;fill-rule:nonzero;"/><path d="M64,18.1l-13.5,75.9l43.6,4.5c1.2,-6.3 2.7,-12.4 3.9,-17.3c9.3,-37.6 24.2,-66.5 38.3,-66.5c6,0 6,7.3 4.3,19.2l-10.1,62.5c-0.4,2 -0.8,4 -1.1,5.9l42.6,4.4c1.4,-8.9 3.6,-18.3 5.4,-25.4c9.3,-37.6 24.2,-66.5 38.3,-66.5c6,0 6,7.3 4.3,19.2l-10,62.3c-0.8,5.3 -1,10 -0.7,14.1l45.1,4.6c-0.5,-10.5 1,-23.6 3,-34.8l6,-35.8c3,-17.4 5,-43.4 -26.5,-43.4c-22.7,0 -45.4,15.1 -62.3,79.7l-1,-0.3l8.8,-36c4,-16.6 6.6,-43.4 -25,-43.4c-22.7,0 -45.4,15.1 -62.3,79.7l-1,-0.3l13.9,-57c3.5,-17.1 -2.3,-22.4 -16.6,-22.4c-12.1,0 -29.7,5.5 -38.6,9.8l0.8,0.8c7.1,-2.3 11.2,1.5 10.4,6.5Z" style="fill:#1d1d1b;fill-rule:nonzero;"/><path d="M0,88.8l512,52.7" style="fill:none;stroke:#1d1d1b;stroke-width:1px;"/></svg>